<?xml version="1.0" encoding="UTF-8" standalone="no"?>
<!DOCTYPE svg PUBLIC "-//W3C//DTD SVG 1.1//EN"
 "http://www.w3.org/Graphics/SVG/1.1/DTD/svg11.dtd">
<!-- Generated by graphviz version 13.1.0 (20250701.0955)
 -->
<!-- Title: aox4000_basic_init Pages: 1 -->
<svg width="286pt" height="418pt"
 viewBox="0.00 0.00 286.00 418.00" xmlns="http://www.w3.org/2000/svg" xmlns:xlink="http://www.w3.org/1999/xlink">
<g id="graph0" class="graph" transform="scale(1 1) rotate(0) translate(4 414)">
<title>aox4000_basic_init</title>
<!-- Node1 -->
<g id="Node000001" class="node">
<title>Node1</title>
<g id="a_Node000001"><a xlink:title="basic example init">
<polygon fill="#999999" stroke="#666666" points="99.25,-215 0,-215 0,-195 99.25,-195 99.25,-215"/>
<text xml:space="preserve" text-anchor="middle" x="49.62" y="-201.5" font-family="Helvetica,sans-Serif" font-size="10.00">aox4000_basic_init</text>
</a>
</g>
</g>
<!-- Node2 -->
<g id="Node000002" class="node">
<title>Node2</title>
<g id="a_Node000002"><a xlink:href="group__aox4000__basic__driver.html#gaaf23e89145c38d33bb591b0ecb778554" target="_top" xlink:title="close the chip">
<polygon fill="white" stroke="#666666" points="247.25,-410 166,-410 166,-390 247.25,-390 247.25,-410"/>
<text xml:space="preserve" text-anchor="middle" x="206.62" y="-396.5" font-family="Helvetica,sans-Serif" font-size="10.00">aox4000_deinit</text>
</a>
</g>
</g>
<!-- Node1&#45;&gt;Node2 -->
<g id="edge1_Node000001_Node000002" class="edge">
<title>Node1&#45;&gt;Node2</title>
<g id="a_edge1_Node000001_Node000002"><a xlink:title=" ">
<path fill="none" stroke="#63b8ff" d="M52.45,-215.17C58.41,-245.37 80.22,-335.29 135.25,-381 141.01,-385.78 147.86,-389.37 154.99,-392.06"/>
<polygon fill="#63b8ff" stroke="#63b8ff" points="153.52,-395.26 164.11,-394.93 155.62,-388.58 153.52,-395.26"/>
</a>
</g>
</g>
<!-- Node3 -->
<g id="Node000003" class="node">
<title>Node3</title>
<g id="a_Node000003"><a xlink:href="group__aox4000__basic__driver.html#gad48df4624e73dce51b6ff5cb0f97c8c4" target="_top" xlink:title="initialize the chip">
<polygon fill="white" stroke="#666666" points="242,-372 171.25,-372 171.25,-352 242,-352 242,-372"/>
<text xml:space="preserve" text-anchor="middle" x="206.62" y="-358.5" font-family="Helvetica,sans-Serif" font-size="10.00">aox4000_init</text>
</a>
</g>
</g>
<!-- Node1&#45;&gt;Node3 -->
<g id="edge2_Node000001_Node000003" class="edge">
<title>Node1&#45;&gt;Node3</title>
<g id="a_edge2_Node000001_Node000003"><a xlink:title=" ">
<path fill="none" stroke="#63b8ff" d="M53.87,-215.14C62.6,-240.76 89.11,-308.49 135.25,-343 142.52,-348.44 151.24,-352.32 160.02,-355.09"/>
<polygon fill="#63b8ff" stroke="#63b8ff" points="159.06,-358.45 169.62,-357.65 160.86,-351.69 159.06,-358.45"/>
</a>
</g>
</g>
<!-- Node4 -->
<g id="Node000004" class="node">
<title>Node4</title>
<g id="a_Node000004"><a xlink:href="group__aox4000__interface__driver.html#ga7a12a6bf047232fdcb392245ef77a8eb" target="_top" xlink:title="interface print format data">
<polygon fill="white" stroke="#666666" points="270.12,-334 143.12,-334 143.12,-302 270.12,-302 270.12,-334"/>
<text xml:space="preserve" text-anchor="start" x="151.12" y="-320.5" font-family="Helvetica,sans-Serif" font-size="10.00">aox4000_interface_debug</text>
<text xml:space="preserve" text-anchor="middle" x="206.62" y="-308.5" font-family="Helvetica,sans-Serif" font-size="10.00">_print</text>
</a>
</g>
</g>
<!-- Node1&#45;&gt;Node4 -->
<g id="edge3_Node000001_Node000004" class="edge">
<title>Node1&#45;&gt;Node4</title>
<g id="a_edge3_Node000001_Node000004"><a xlink:title=" ">
<path fill="none" stroke="#63b8ff" d="M58.06,-215.46C71.51,-233.66 101.59,-271.28 135.25,-293 137.21,-294.26 139.24,-295.47 141.32,-296.63"/>
<polygon fill="#63b8ff" stroke="#63b8ff" points="139.5,-299.63 150.01,-300.98 142.64,-293.38 139.5,-299.63"/>
</a>
</g>
</g>
<!-- Node5 -->
<g id="Node000005" class="node">
<title>Node5</title>
<g id="a_Node000005"><a xlink:href="group__aox4000__interface__driver.html#ga0efc4b8abcaa3d42ac608e6d212d9c90" target="_top" xlink:title="interface delay ms">
<polygon fill="white" stroke="#666666" points="278,-284 135.25,-284 135.25,-264 278,-264 278,-284"/>
<text xml:space="preserve" text-anchor="middle" x="206.62" y="-270.5" font-family="Helvetica,sans-Serif" font-size="10.00">aox4000_interface_delay_ms</text>
</a>
</g>
</g>
<!-- Node1&#45;&gt;Node5 -->
<g id="edge4_Node000001_Node000005" class="edge">
<title>Node1&#45;&gt;Node5</title>
<g id="a_edge4_Node000001_Node000005"><a xlink:title=" ">
<path fill="none" stroke="#63b8ff" d="M65.27,-215.32C81.65,-226.46 109.3,-244.07 135.25,-255 139.77,-256.9 144.53,-258.67 149.36,-260.29"/>
<polygon fill="#63b8ff" stroke="#63b8ff" points="147.93,-263.51 158.52,-263.15 150.02,-256.83 147.93,-263.51"/>
</a>
</g>
</g>
<!-- Node6 -->
<g id="Node000006" class="node">
<title>Node6</title>
<g id="a_Node000006"><a xlink:href="group__aox4000__interface__driver.html#gac5089cbddad29a55bbf18ddc92fb07ba" target="_top" xlink:title="interface uart deinit">
<polygon fill="white" stroke="#666666" points="265.25,-246 148,-246 148,-214 265.25,-214 265.25,-246"/>
<text xml:space="preserve" text-anchor="start" x="156" y="-232.5" font-family="Helvetica,sans-Serif" font-size="10.00">aox4000_interface_uart</text>
<text xml:space="preserve" text-anchor="middle" x="206.62" y="-220.5" font-family="Helvetica,sans-Serif" font-size="10.00">_deinit</text>
</a>
</g>
</g>
<!-- Node1&#45;&gt;Node6 -->
<g id="edge5_Node000001_Node000006" class="edge">
<title>Node1&#45;&gt;Node6</title>
<g id="a_edge5_Node000001_Node000006"><a xlink:title=" ">
<path fill="none" stroke="#63b8ff" d="M99.67,-212.91C111.35,-214.79 124.03,-216.84 136.42,-218.84"/>
<polygon fill="#63b8ff" stroke="#63b8ff" points="135.76,-222.28 146.19,-220.41 136.88,-215.37 135.76,-222.28"/>
</a>
</g>
</g>
<!-- Node7 -->
<g id="Node000007" class="node">
<title>Node7</title>
<g id="a_Node000007"><a xlink:href="group__aox4000__interface__driver.html#gaacb617a302c434e316e289e7c7c12f8a" target="_top" xlink:title="interface uart flush">
<polygon fill="white" stroke="#666666" points="265.25,-196 148,-196 148,-164 265.25,-164 265.25,-196"/>
<text xml:space="preserve" text-anchor="start" x="156" y="-182.5" font-family="Helvetica,sans-Serif" font-size="10.00">aox4000_interface_uart</text>
<text xml:space="preserve" text-anchor="middle" x="206.62" y="-170.5" font-family="Helvetica,sans-Serif" font-size="10.00">_flush</text>
</a>
</g>
</g>
<!-- Node1&#45;&gt;Node7 -->
<g id="edge6_Node000001_Node000007" class="edge">
<title>Node1&#45;&gt;Node7</title>
<g id="a_edge6_Node000001_Node000007"><a xlink:title=" ">
<path fill="none" stroke="#63b8ff" d="M99.67,-197.09C111.35,-195.21 124.03,-193.16 136.42,-191.16"/>
<polygon fill="#63b8ff" stroke="#63b8ff" points="136.88,-194.63 146.19,-189.59 135.76,-187.72 136.88,-194.63"/>
</a>
</g>
</g>
<!-- Node8 -->
<g id="Node000008" class="node">
<title>Node8</title>
<g id="a_Node000008"><a xlink:href="group__aox4000__interface__driver.html#ga5468d6d2b17a0f4119f96d57737743fd" target="_top" xlink:title="interface uart init">
<polygon fill="white" stroke="#666666" points="274.25,-146 139,-146 139,-126 274.25,-126 274.25,-146"/>
<text xml:space="preserve" text-anchor="middle" x="206.62" y="-132.5" font-family="Helvetica,sans-Serif" font-size="10.00">aox4000_interface_uart_init</text>
</a>
</g>
</g>
<!-- Node1&#45;&gt;Node8 -->
<g id="edge7_Node000001_Node000008" class="edge">
<title>Node1&#45;&gt;Node8</title>
<g id="a_edge7_Node000001_Node000008"><a xlink:title=" ">
<path fill="none" stroke="#63b8ff" d="M65.27,-194.68C81.65,-183.54 109.3,-165.93 135.25,-155 139.77,-153.1 144.53,-151.33 149.36,-149.71"/>
<polygon fill="#63b8ff" stroke="#63b8ff" points="150.02,-153.17 158.52,-146.85 147.93,-146.49 150.02,-153.17"/>
</a>
</g>
</g>
<!-- Node9 -->
<g id="Node000009" class="node">
<title>Node9</title>
<g id="a_Node000009"><a xlink:href="group__aox4000__interface__driver.html#ga3c350004876689db09aead82c2e01fcb" target="_top" xlink:title="interface uart read">
<polygon fill="white" stroke="#666666" points="277.25,-108 136,-108 136,-88 277.25,-88 277.25,-108"/>
<text xml:space="preserve" text-anchor="middle" x="206.62" y="-94.5" font-family="Helvetica,sans-Serif" font-size="10.00">aox4000_interface_uart_read</text>
</a>
</g>
</g>
<!-- Node1&#45;&gt;Node9 -->
<g id="edge8_Node000001_Node000009" class="edge">
<title>Node1&#45;&gt;Node9</title>
<g id="a_edge8_Node000001_Node000009"><a xlink:title=" ">
<path fill="none" stroke="#63b8ff" d="M57.69,-194.56C70.76,-176.05 100.59,-137.51 135.25,-117 137.87,-115.45 140.61,-114.03 143.44,-112.72"/>
<polygon fill="#63b8ff" stroke="#63b8ff" points="144.59,-116.03 152.54,-109.02 141.95,-109.54 144.59,-116.03"/>
</a>
</g>
</g>
<!-- Node10 -->
<g id="Node000010" class="node">
<title>Node10</title>
<g id="a_Node000010"><a xlink:href="group__aox4000__interface__driver.html#gabdfa10fb7ed3314ee289b17a6221f232" target="_top" xlink:title="interface uart write">
<polygon fill="white" stroke="#666666" points="265.25,-70 148,-70 148,-38 265.25,-38 265.25,-70"/>
<text xml:space="preserve" text-anchor="start" x="156" y="-56.5" font-family="Helvetica,sans-Serif" font-size="10.00">aox4000_interface_uart</text>
<text xml:space="preserve" text-anchor="middle" x="206.62" y="-44.5" font-family="Helvetica,sans-Serif" font-size="10.00">_write</text>
</a>
</g>
</g>
<!-- Node1&#45;&gt;Node10 -->
<g id="edge9_Node000001_Node000010" class="edge">
<title>Node1&#45;&gt;Node10</title>
<g id="a_edge9_Node000001_Node000010"><a xlink:title=" ">
<path fill="none" stroke="#63b8ff" d="M54.87,-194.55C65.11,-170.64 93.42,-111.49 135.25,-79 136.56,-77.98 137.92,-77 139.31,-76.06"/>
<polygon fill="#63b8ff" stroke="#63b8ff" points="140.82,-79.23 147.67,-71.15 137.27,-73.2 140.82,-79.23"/>
</a>
</g>
</g>
<!-- Node11 -->
<g id="Node000011" class="node">
<title>Node11</title>
<g id="a_Node000011"><a xlink:href="group__aox4000__basic__driver.html#gafcd905b9f6a4a1e95e957a6201521d12" target="_top" xlink:title="set mode">
<polygon fill="white" stroke="#666666" points="257,-20 156.25,-20 156.25,0 257,0 257,-20"/>
<text xml:space="preserve" text-anchor="middle" x="206.62" y="-6.5" font-family="Helvetica,sans-Serif" font-size="10.00">aox4000_set_mode</text>
</a>
</g>
</g>
<!-- Node1&#45;&gt;Node11 -->
<g id="edge10_Node000001_Node000011" class="edge">
<title>Node1&#45;&gt;Node11</title>
<g id="a_edge10_Node000001_Node000011"><a xlink:title=" ">
<path fill="none" stroke="#63b8ff" d="M52.45,-194.83C58.41,-164.63 80.22,-74.71 135.25,-29 138.46,-26.34 142,-24.04 145.75,-22.07"/>
<polygon fill="#63b8ff" stroke="#63b8ff" points="146.9,-25.39 154.65,-18.17 144.08,-18.98 146.9,-25.39"/>
</a>
</g>
</g>
</g>
</svg>
